<?xml version="1.0" standalone="no"?>
<!DOCTYPE svg PUBLIC "-//W3C//DTD SVG 20010904//EN"
 "http://www.w3.org/TR/2001/REC-SVG-20010904/DTD/svg10.dtd">
<svg version="1.0" xmlns="http://www.w3.org/2000/svg"
 width="2048.000000pt" height="2048.000000pt" viewBox="0 0 2048.000000 2048.000000"
 preserveAspectRatio="xMidYMid meet">

<g transform="translate(0.000000,2048.000000) scale(0.100000,-0.100000)"
fill="#000000" stroke="none">
<path d="M10685 20433 c-22 -27 -88 -97 -146 -158 -127 -132 -173 -205 -188
-295 -5 -36 -11 -161 -13 -278 -1 -117 -5 -217 -8 -220 -3 -4 -16 -8 -30 -9
-78 -3 -260 -40 -276 -56 -4 -4 -20 -7 -35 -7 -15 0 -31 -4 -34 -10 -3 -5 -14
-10 -24 -10 -21 0 -214 -98 -219 -111 -2 -5 -8 -9 -14 -9 -25 0 -218 -155
-218 -175 0 -4 24 10 53 31 l52 38 -55 -58 c-89 -95 -121 -126 -128 -126 -4 0
-20 -20 -35 -45 -16 -25 -33 -45 -38 -45 -5 0 -15 -11 -21 -25 -6 -14 -17 -25
-25 -25 -7 0 -13 -6 -13 -12 0 -7 -16 -24 -35 -38 -19 -14 -39 -37 -46 -52 -6
-16 -14 -28 -18 -28 -3 0 -33 -25 -66 -54 -66 -61 -85 -66 -36 -11 51 58 35
56 -27 -4 -99 -94 -144 -134 -217 -188 -38 -29 -75 -57 -82 -63 -7 -5 -15 -10
-17 -10 -3 0 -36 -19 -73 -43 -38 -24 -94 -55 -125 -71 -32 -15 -58 -32 -58
-37 0 -5 -9 -9 -20 -9 -11 0 -20 -4 -20 -10 0 -5 -7 -10 -15 -10 -8 0 -36 -12
-62 -27 -56 -31 -63 -34 -123 -61 -25 -11 -70 -31 -100 -45 -175 -80 -173 -79
-195 -37 -24 46 -39 38 -31 -17 3 -26 10 -61 16 -78 5 -16 21 -70 36 -120 14
-49 34 -115 44 -145 39 -122 50 -163 50 -186 0 -26 16 -66 88 -214 44 -90 122
-210 201 -310 20 -24 43 -53 51 -64 8 -10 22 -26 30 -35 8 -9 28 -35 45 -56
41 -57 201 -218 260 -265 75 -58 178 -133 204 -148 13 -8 40 -23 60 -34 20
-11 43 -26 52 -34 20 -18 39 -18 39 0 0 7 -13 16 -29 19 -16 3 -36 13 -44 22
-9 8 -18 15 -21 15 -3 0 -16 10 -27 21 -17 17 -19 23 -8 30 7 4 10 12 5 16 -5
4 -11 2 -13 -4 -7 -21 -34 -15 -59 12 -13 14 -28 25 -34 25 -5 0 -10 5 -10 10
0 6 -7 10 -15 10 -19 0 -19 7 -1 26 17 16 36 19 36 4 0 -5 -4 -10 -10 -10 -5
0 -10 -4 -10 -10 0 -5 7 -10 15 -10 8 0 15 -4 15 -10 0 -5 9 -10 20 -10 11 0
20 5 20 10 0 6 -5 10 -10 10 -6 0 -15 10 -20 23 -5 12 -18 36 -29 52 -12 17
-21 40 -21 53 0 12 -4 22 -9 22 -11 0 -41 57 -41 77 0 8 -12 25 -27 39 -20 19
-26 34 -27 69 -1 25 -4 45 -8 45 -5 0 -8 -4 -8 -10 0 -19 -28 -10 -33 10 -4
17 -2 20 16 15 12 -4 17 -3 11 2 -11 8 -27 41 -29 58 0 6 -8 21 -18 35 -9 13
-17 32 -17 40 0 21 -23 70 -32 70 -14 0 -8 33 9 52 11 12 13 22 7 26 -15 10
-25 41 -14 47 5 3 14 21 20 41 22 66 61 89 127 73 41 -9 77 -3 68 12 -4 5 -22
9 -41 9 -24 0 -34 5 -34 15 0 10 10 15 31 15 l32 0 -26 20 c-14 11 -32 20 -40
20 -9 0 -19 5 -22 10 -4 7 2 9 17 5 25 -6 42 2 51 25 4 12 6 11 6 -2 1 -22 24
-23 41 -3 7 8 19 15 27 15 10 0 12 6 8 19 -6 21 10 38 20 21 4 -6 15 -4 30 6
13 9 29 13 35 9 7 -4 34 5 61 19 27 15 53 24 59 21 5 -3 20 1 32 9 12 9 30 16
40 16 10 0 18 5 18 10 0 6 7 10 15 10 8 0 19 9 25 20 6 11 17 20 26 20 23 0
125 61 118 71 -3 5 12 10 33 10 l38 1 -45 9 c-25 4 -83 15 -130 23 -47 9 -125
25 -175 36 -49 12 -114 26 -142 32 -29 6 -53 16 -53 22 0 6 28 22 63 36 34 13
73 30 87 37 14 7 29 13 33 13 5 0 23 6 40 14 18 8 61 26 97 41 36 14 74 30 85
35 11 5 94 39 185 76 91 36 201 81 245 99 44 18 145 60 225 93 80 32 197 80
260 107 l116 47 159 -77 c257 -125 507 -245 510 -245 1 0 59 -27 128 -60 70
-33 129 -60 132 -60 4 0 43 -17 88 -39 45 -21 100 -46 122 -56 22 -9 48 -21
57 -26 10 -5 24 -9 32 -9 7 0 18 -6 24 -13 6 -7 34 -19 62 -27 27 -7 50 -17
50 -22 0 -4 7 -8 15 -8 8 0 31 -9 52 -19 36 -18 92 -43 138 -61 11 -4 45 -19
75 -33 104 -47 159 -72 290 -128 14 -6 32 -15 40 -20 8 -5 22 -12 30 -15 8 -3
52 -24 97 -47 69 -34 84 -39 97 -28 9 8 16 20 16 27 0 8 4 22 9 32 5 9 15 37
21 62 7 25 16 54 20 65 5 11 16 45 26 75 9 30 20 64 25 75 8 22 17 61 26 113
4 26 2 32 -13 32 -18 0 -92 26 -164 57 -19 8 -46 20 -60 25 -14 6 -32 14 -40
19 -8 5 -22 12 -30 15 -8 3 -24 9 -35 14 -52 20 -228 109 -302 153 -220 129
-362 263 -563 533 -128 171 -298 349 -425 443 -49 37 -144 93 -210 125 -137
67 -139 68 -220 91 -33 9 -71 21 -85 25 -14 5 -51 12 -83 16 l-59 7 7 261 c7
240 9 264 28 295 32 52 111 147 202 241 73 75 165 189 165 205 0 3 -10 5 -23
5 -15 0 -36 -16 -62 -47z m-325 -1127 c0 -58 -4 -107 -9 -110 -4 -3 -9 44 -10
104 -1 70 2 110 9 110 6 0 10 -40 10 -104z m-3 -178 c-3 -8 -6 -5 -6 6 -1 11
2 17 5 13 3 -3 4 -12 1 -19z m3 -158 c0 -11 -2 -20 -4 -20 -2 0 -6 9 -9 20 -3
11 -1 20 4 20 5 0 9 -9 9 -20z m-9 -53 c-10 -9 -11 -8 -5 6 3 10 9 15 12 12 3
-3 0 -11 -7 -18z m9 -57 c0 -5 -5 -10 -11 -10 -5 0 -7 5 -4 10 3 6 8 10 11 10
2 0 4 -4 4 -10z m847 -776 c-3 -3 -12 -4 -19 -1 -8 3 -5 6 6 6 11 1 17 -2 13
-5z m1100 -480 c-3 -3 -12 -4 -19 -1 -8 3 -5 6 6 6 11 1 17 -2 13 -5z m114
-51 c28 -14 31 -18 14 -21 -10 -3 -21 1 -23 7 -2 6 -10 11 -18 11 -8 0 -14 5
-14 10 0 13 1 13 41 -7z m69 -43 c0 -5 -2 -10 -4 -10 -3 0 -8 5 -11 10 -3 6
-1 10 4 10 6 0 11 -4 11 -10z m-3640 -10 c0 -5 -2 -10 -4 -10 -3 0 -8 5 -11
10 -3 6 -1 10 4 10 6 0 11 -4 11 -10z m-117 -107 c-7 -2 -19 -2 -25 0 -7 3 -2
5 12 5 14 0 19 -2 13 -5z m67 -863 c0 -5 -2 -10 -4 -10 -3 0 -8 5 -11 10 -3 6
-1 10 4 10 6 0 11 -4 11 -10z"/>
<path d="M9442 19070 c-7 -11 -10 -20 -6 -20 7 0 34 27 34 34 0 13 -16 5 -28
-14z"/>
<path d="M9386 19014 c-34 -35 -26 -44 10 -10 16 14 26 28 23 31 -3 3 -18 -7
-33 -21z"/>
<path d="M9295 18920 c-3 -5 -1 -10 4 -10 6 0 11 5 11 10 0 6 -2 10 -4 10 -3
0 -8 -4 -11 -10z"/>
<path d="M9253 18870 c-33 -41 -28 -50 7 -12 17 18 30 35 30 38 0 12 -17 0
-37 -26z"/>
<path d="M9192 18800 c-18 -30 -14 -36 8 -12 21 22 25 32 12 32 -4 0 -13 -9
-20 -20z"/>
<path d="M9148 18748 c-10 -10 -14 -18 -9 -18 10 0 36 29 30 34 -2 1 -12 -6
-21 -16z"/>
<path d="M9115 18710 c-3 -5 -1 -10 4 -10 6 0 11 5 11 10 0 6 -2 10 -4 10 -3
0 -8 -4 -11 -10z"/>
<path d="M12767 17921 c4 -16 11 -20 24 -16 21 7 85 -12 110 -32 8 -7 22 -13
29 -13 7 0 21 -7 30 -15 11 -10 24 -12 45 -6 30 8 30 8 -12 15 -24 4 -43 11
-43 15 0 4 -19 14 -42 21 -24 8 -47 17 -53 20 -5 4 -21 10 -35 12 -14 3 -33 9
-42 13 -13 5 -15 2 -11 -14z"/>
<path d="M13072 17816 c7 -8 16 -12 21 -9 11 7 -2 23 -19 23 -12 0 -12 -2 -2
-14z"/>
<path d="M13137 17803 c-4 -3 -7 -15 -7 -26 0 -23 -28 -123 -41 -149 -5 -10
-9 -27 -9 -37 0 -11 -4 -23 -10 -26 -5 -3 -10 -15 -10 -25 0 -11 -7 -36 -16
-57 -9 -21 -21 -49 -27 -63 -5 -14 -13 -34 -18 -45 -189 -477 -510 -918 -890
-1223 -143 -116 -171 -137 -183 -141 -6 -2 -31 -18 -56 -36 -51 -35 -95 -61
-223 -129 -114 -60 -114 -60 -167 -84 -25 -11 -71 -32 -102 -46 -31 -14 -63
-26 -70 -26 -8 0 -18 -4 -23 -8 -6 -5 -30 -14 -55 -21 -25 -7 -61 -19 -80 -26
-82 -29 -232 -69 -324 -85 -50 -10 -73 -20 -40 -20 31 1 182 35 190 43 4 4 18
7 31 7 45 0 255 62 278 82 5 4 17 8 27 8 10 0 26 4 36 9 9 5 37 18 62 29 137
59 178 78 210 97 19 12 50 27 68 34 17 8 32 17 32 22 0 5 6 9 13 9 7 0 42 20
79 45 37 25 70 45 73 45 11 0 178 122 265 195 167 138 446 432 491 517 7 13
15 25 19 28 12 8 145 210 179 270 17 30 58 111 92 180 33 69 65 133 70 142 5
10 9 26 9 36 0 10 7 27 15 38 8 10 15 28 15 40 0 11 4 24 8 30 5 5 14 29 21
54 6 25 16 54 20 65 5 11 16 40 26 65 44 115 40 111 75 93 36 -17 80 -10 80
13 0 12 -7 15 -24 12 -17 -4 -23 -1 -19 9 3 7 0 13 -6 13 -7 0 -24 11 -39 25
-28 26 -35 29 -45 18z"/>
<path d="M7620 17772 c0 -16 28 -47 36 -39 4 4 -2 16 -14 27 -12 12 -22 17
-22 12z"/>
<path d="M13081 17754 c0 -11 3 -14 6 -6 3 7 2 16 -1 19 -3 4 -6 -2 -5 -13z"/>
<path d="M9483 17733 c9 -2 23 -2 30 0 6 3 -1 5 -18 5 -16 0 -22 -2 -12 -5z"/>
<path d="M7665 17697 c-4 -10 -14 -16 -21 -13 -8 3 -11 0 -7 -10 7 -18 32 -18
39 1 9 22 -2 44 -11 22z"/>
<path d="M13294 17695 c8 -8 21 -15 28 -15 8 1 6 6 -6 15 -26 20 -42 19 -22 0z"/>
<path d="M7531 17684 c0 -11 3 -14 6 -6 3 7 2 16 -1 19 -3 4 -6 -2 -5 -13z"/>
<path d="M7680 17644 c0 -10 -6 -14 -15 -10 -8 3 -15 1 -15 -4 0 -6 7 -10 15
-10 11 0 14 -7 9 -25 -4 -15 -2 -25 5 -25 6 0 11 -17 11 -40 0 -29 4 -40 15
-40 14 0 19 -11 16 -37 -1 -8 5 -10 15 -6 14 5 16 2 12 -22 -4 -19 0 -33 13
-46 28 -28 55 -22 31 7 -5 5 -14 28 -22 51 -7 23 -19 44 -27 47 -10 4 -11 10
-3 25 6 12 6 22 1 25 -5 4 -11 0 -14 -6 -2 -7 -7 -10 -11 -6 -4 3 -2 15 6 27
10 16 10 23 0 33 -9 9 -12 9 -12 0 0 -7 -4 -12 -10 -12 -14 0 -13 27 2 32 7 3
9 14 4 31 -7 29 -26 37 -26 11z"/>
<path d="M11995 17650 c-3 -5 1 -10 10 -10 9 0 13 5 10 10 -3 6 -8 10 -10 10
-2 0 -7 -4 -10 -10z"/>
<path d="M13424 17639 c-9 -16 14 -34 66 -52 67 -23 232 -92 327 -137 45 -22
89 -37 98 -34 11 5 14 2 8 -11 -5 -16 -2 -17 26 -12 35 7 71 -6 71 -26 0 -16
54 -41 58 -27 2 5 10 10 19 10 9 0 12 -6 8 -19 -5 -15 1 -20 32 -26 21 -4 39
-5 40 -3 1 1 8 -6 16 -16 9 -12 20 -17 31 -13 9 4 16 3 16 -2 0 -13 70 -43 86
-37 19 7 44 -3 44 -19 0 -7 7 -16 16 -19 22 -9 24 -8 24 9 0 8 6 15 13 15 6 1
-6 10 -28 21 -22 11 -50 18 -62 16 -15 -3 -20 0 -16 10 3 7 0 13 -6 13 -10 0
-103 39 -143 61 -10 5 -27 9 -38 9 -11 0 -20 4 -20 8 0 8 -21 18 -157 73 -16
6 -35 15 -43 20 -8 5 -22 12 -30 15 -8 3 -23 10 -32 15 -10 5 -27 9 -38 9 -11
0 -20 5 -20 10 0 6 -11 10 -25 10 -14 0 -25 5 -25 10 0 6 -13 10 -30 10 -16 0
-30 4 -30 9 0 12 -60 34 -87 32 -15 -2 -23 3 -23 13 0 9 -8 16 -19 16 -11 0
-41 11 -67 25 -54 29 -51 28 -60 14z m633 -275 c-3 -3 -12 -4 -19 -1 -8 3 -5
6 6 6 11 1 17 -2 13 -5z"/>
<path d="M7550 17601 c0 -6 5 -13 10 -16 6 -3 10 1 10 9 0 9 -4 16 -10 16 -5
0 -10 -4 -10 -9z"/>
<path d="M12185 17540 c-21 -11 -45 -20 -52 -20 -7 0 -21 -4 -31 -9 -9 -5 -26
-13 -37 -16 -13 -5 -16 -9 -7 -12 16 -6 102 19 102 29 0 4 10 8 23 8 28 0 51
14 46 29 -3 8 -17 5 -44 -9z"/>
<path d="M7581 17534 c0 -11 3 -14 6 -6 3 7 2 16 -1 19 -3 4 -6 -2 -5 -13z"/>
<path d="M7602 17475 c0 -16 2 -22 5 -12 2 9 2 23 0 30 -3 6 -5 -1 -5 -18z"/>
<path d="M11993 17472 c-13 -2 -23 -8 -23 -13 0 -12 47 -12 55 0 7 13 -5 18
-32 13z"/>
<path d="M11900 17440 c0 -5 11 -10 25 -10 14 0 25 5 25 10 0 6 -11 10 -25 10
-14 0 -25 -4 -25 -10z"/>
<path d="M7620 17418 c0 -16 5 -28 10 -28 13 0 13 20 0 40 -8 12 -10 9 -10
-12z"/>
<path d="M11835 17420 c-18 -8 -17 -9 8 -9 16 -1 26 3 22 9 -3 6 -7 10 -8 9
-1 0 -11 -4 -22 -9z"/>
<path d="M11735 17390 c-3 -5 -21 -10 -40 -10 -19 0 -37 -4 -40 -10 -3 -5 -23
-10 -43 -10 -20 0 -44 -5 -52 -11 -11 -7 -3 -9 30 -5 81 9 125 18 138 28 6 6
27 14 45 18 l32 8 -32 1 c-17 1 -35 -3 -38 -9z"/>
<path d="M13965 17380 c3 -5 10 -10 16 -10 5 0 9 5 9 10 0 6 -7 10 -16 10 -8
0 -12 -4 -9 -10z"/>
<path d="M7646 17352 c-2 -4 -1 -14 5 -22 7 -12 9 -10 9 8 0 23 -5 28 -14 14z"/>
<path d="M11470 17330 c-21 -7 -19 -8 18 -9 23 -1 42 4 42 9 0 12 -24 12 -60
0z"/>
<path d="M8868 17323 c6 -2 18 -2 25 0 6 3 1 5 -13 5 -14 0 -19 -2 -12 -5z"/>
<path d="M11393 17312 c-18 -2 -33 -8 -33 -14 0 -6 12 -8 32 -4 54 11 54 23 1
18z"/>
<path d="M7666 17302 c-2 -4 -1 -14 5 -22 7 -12 9 -10 9 8 0 23 -5 28 -14 14z"/>
<path d="M11235 17280 c-15 -7 -9 -9 25 -9 25 0 52 4 60 9 19 13 -56 13 -85 0z"/>
<path d="M11110 17260 c-31 -7 -29 -8 22 -9 31 0 60 4 63 9 7 11 -31 11 -85 0z"/>
<path d="M7690 17230 c0 -11 5 -20 10 -20 6 0 10 -9 10 -19 0 -11 5 -23 10
-26 15 -9 12 18 -6 53 -18 37 -24 40 -24 12z"/>
<path d="M10913 17239 c-40 -5 -94 -13 -120 -18 -41 -9 -33 -10 47 -5 143 7
204 16 188 25 -15 10 -15 10 -115 -2z"/>
<path d="M7820 17229 c0 -5 5 -7 10 -4 6 3 10 8 10 11 0 2 -4 4 -10 4 -5 0
-10 -5 -10 -11z"/>
<path d="M10555 17219 c-66 -5 -223 -13 -350 -17 l-230 -7 2 -185 c1 -161 3
-185 17 -188 9 -2 16 -9 16 -17 0 -8 -7 -11 -20 -8 -20 5 -20 0 -21 -238 0
-134 -4 -311 -8 -394 -4 -92 -3 -153 2 -156 48 -33 594 -25 717 9 l25 7 11
430 c7 237 13 507 14 600 l2 170 -29 1 c-15 1 -82 -3 -148 -7z m-548 -911 c-3
-8 -6 -5 -6 6 -1 11 2 17 5 13 3 -3 4 -12 1 -19z"/>
<path d="M14445 17200 c3 -5 13 -10 20 -10 9 0 12 -6 8 -16 -4 -12 0 -14 20
-9 14 4 28 2 31 -4 4 -6 2 -11 -4 -11 -6 0 -8 -4 -5 -10 3 -5 14 -10 25 -10
10 0 20 -7 24 -15 3 -8 15 -15 27 -15 12 0 45 -11 73 -24 28 -13 78 -36 111
-51 117 -53 358 -177 372 -191 8 -8 19 -14 24 -14 6 0 25 -11 43 -25 18 -14
38 -25 44 -25 7 0 12 -4 12 -9 0 -5 8 -12 18 -15 9 -3 34 -22 55 -41 21 -19
42 -35 48 -35 5 0 9 -6 9 -12 0 -7 19 -29 42 -48 48 -40 153 -136 217 -197 24
-24 48 -43 52 -43 5 0 9 -9 9 -20 0 -11 4 -20 9 -20 5 0 19 -25 31 -56 13 -30
28 -61 34 -68 14 -14 52 -93 61 -123 3 -13 13 -23 20 -23 8 0 19 -9 25 -20 15
-29 66 -27 73 2 4 12 2 28 -4 34 -11 14 4 54 21 54 16 0 76 -113 102 -195 15
-44 42 -129 62 -190 20 -60 36 -117 36 -125 0 -8 7 -28 16 -45 8 -16 16 -47
16 -67 0 -24 5 -38 13 -38 7 0 13 -15 14 -37 5 -85 3 -1199 -2 -1473 -4 -221
-3 -296 6 -302 9 -6 9 -12 -1 -28 -10 -16 -10 -30 -2 -61 6 -22 8 -49 5 -60
-4 -11 -1 -26 5 -34 9 -10 9 -19 0 -36 -9 -15 -9 -23 -1 -28 6 -4 14 -35 17
-69 5 -42 11 -62 20 -62 8 0 14 -4 14 -10 0 -5 -4 -10 -10 -10 -15 0 -12 -36
5 -50 15 -12 20 -4 16 23 -1 4 8 17 19 29 21 23 27 48 10 48 -5 0 -10 6 -10
14 0 8 -6 16 -12 19 -8 2 -9 8 -4 13 5 5 11 4 13 -3 16 -45 34 51 37 197 1 36
5 71 10 78 4 7 5 29 2 48 -6 27 -4 34 9 34 8 0 15 5 15 10 0 6 -4 10 -9 10
-13 0 -4 119 10 137 9 10 9 17 1 25 -17 17 -15 28 5 28 13 0 14 3 6 11 -9 9
-9 17 0 32 9 15 9 21 0 24 -9 3 -9 10 -1 28 8 18 8 28 0 38 -8 10 -8 20 2 39
14 26 29 212 27 314 -1 40 2 53 15 58 12 5 15 14 11 36 -4 16 -3 31 1 34 4 2
6 45 5 95 -1 50 2 91 6 91 7 0 8 6 12 93 2 31 7 57 11 57 10 0 4 112 -6 129
-16 25 6 29 28 6 20 -22 56 -35 56 -20 0 2 -12 30 -26 62 -14 32 -30 67 -34
78 -4 11 -18 43 -30 70 -22 50 -38 87 -68 155 -40 94 -83 178 -106 209 -14 19
-26 40 -26 46 0 6 -13 35 -28 65 -44 85 -132 250 -162 305 -15 28 -48 88 -72
135 -66 124 -86 159 -116 199 -46 63 -235 251 -295 294 -33 23 -64 47 -71 52
-13 11 -32 22 -105 63 -25 13 -75 41 -111 62 -36 20 -78 44 -95 52 -16 8 -79
40 -140 70 -158 80 -242 118 -260 118 -9 0 -18 7 -21 15 -4 8 -17 15 -30 15
-13 0 -24 5 -24 10 0 6 -7 10 -16 10 -8 0 -22 7 -31 15 -8 8 -18 13 -23 10 -4
-3 -13 2 -20 10 -7 8 -20 15 -30 15 -10 0 -23 7 -31 16 -7 8 -21 13 -31 11
-10 -3 -15 -1 -12 4 3 5 -3 12 -13 15 -24 8 -64 24 -85 35 -24 12 -41 11 -33
-1z m1845 -1700 c0 -5 -7 -10 -16 -10 -8 0 -12 5 -9 10 3 6 10 10 16 10 5 0 9
-4 9 -10z"/>
<path d="M9920 17190 c0 -5 5 -10 10 -10 6 0 10 5 10 10 0 6 -4 10 -10 10 -5
0 -10 -4 -10 -10z"/>
<path d="M7730 17131 c0 -6 5 -13 10 -16 6 -3 10 1 10 9 0 9 -4 16 -10 16 -5
0 -10 -4 -10 -9z"/>
<path d="M7886 17094 c-9 -24 -2 -26 12 -4 7 11 8 20 3 20 -5 0 -12 -7 -15
-16z"/>
<path d="M7761 17084 c0 -11 3 -14 6 -6 3 7 2 16 -1 19 -3 4 -6 -2 -5 -13z"/>
<path d="M7780 17036 c0 -9 5 -16 10 -16 6 0 10 4 10 9 0 6 -4 13 -10 16 -5 3
-10 -1 -10 -9z"/>
<path d="M7901 17034 c0 -11 3 -14 6 -6 3 7 2 16 -1 19 -3 4 -6 -2 -5 -13z"/>
<path d="M7875 16860 c3 -5 8 -10 11 -10 2 0 4 5 4 10 0 6 -5 10 -11 10 -5 0
-7 -4 -4 -10z"/>
<path d="M7895 16830 c3 -5 8 -10 11 -10 2 0 4 5 4 10 0 6 -5 10 -11 10 -5 0
-7 -4 -4 -10z"/>
<path d="M7940 16760 c0 -5 5 -10 11 -10 5 0 7 5 4 10 -3 6 -8 10 -11 10 -2 0
-4 -4 -4 -10z"/>
<path d="M8081 16714 c0 -11 3 -14 6 -6 3 7 2 16 -1 19 -3 4 -6 -2 -5 -13z"/>
<path d="M4989 16336 c-15 -34 -18 -58 -14 -112 6 -79 14 -125 25 -139 12 -16
18 -101 8 -119 -8 -15 -13 -105 -9 -188 0 -15 8 -34 18 -43 13 -13 13 -19 3
-25 -10 -6 -10 -15 0 -45 8 -26 9 -40 2 -47 -8 -8 -5 -22 9 -49 10 -21 19 -56
19 -77 0 -24 6 -45 16 -53 11 -9 14 -22 9 -47 -5 -28 -3 -34 14 -39 14 -4 21
-14 21 -30 0 -13 9 -37 21 -52 12 -16 19 -36 17 -46 -2 -11 -25 12 -71 73 -65
85 -107 132 -107 119 0 -4 24 -44 54 -89 74 -114 112 -193 153 -317 33 -102
37 -141 18 -185 -7 -15 -5 -17 12 -12 17 5 19 2 15 -24 -4 -29 11 -42 21 -17
3 7 6 5 6 -5 1 -9 7 -21 14 -25 7 -4 21 -25 32 -45 35 -68 46 -40 20 54 -8 29
-25 94 -39 143 -32 116 -55 184 -67 191 -5 3 -6 16 -3 30 5 18 3 24 -7 22 -10
-2 -13 11 -10 58 2 43 -1 64 -12 72 -8 7 -15 31 -15 58 -1 25 -6 52 -11 58 -6
7 -9 27 -8 44 3 44 32 43 42 0 9 -38 7 -32 22 -78 7 -19 17 -69 23 -110 13
-85 15 -96 30 -165 15 -74 20 -85 36 -85 8 0 15 8 16 18 0 9 2 28 4 42 6 56
12 545 7 554 -4 5 -6 61 -6 125 1 64 -4 122 -9 128 -7 9 -7 22 1 40 6 16 11
42 10 58 -1 17 2 49 6 73 9 50 -4 55 -24 10 -8 -18 -21 -38 -29 -44 -8 -6 -15
-30 -16 -57 0 -26 -3 -47 -6 -47 -12 0 -30 25 -30 42 0 9 -6 21 -12 25 -7 4
-19 16 -27 26 -13 16 -13 20 0 28 11 7 10 10 -8 15 -22 6 -28 19 -25 57 1 10
-5 20 -13 23 -8 4 -15 15 -15 27 0 11 -8 30 -19 41 -15 17 -60 122 -61 141 0
3 0 19 0 35 0 45 -28 38 -51 -14z m157 -796 c8 -40 8 -53 -3 -61 -10 -9 -13
-6 -13 13 0 13 -7 33 -15 45 -8 12 -12 28 -9 37 12 31 30 15 40 -34z"/>
<path d="M9090 16303 c0 -8 47 -33 62 -33 17 0 6 16 -19 28 -31 14 -43 15 -43
5z"/>
<path d="M9180 16256 c0 -2 7 -6 15 -10 8 -3 15 -1 15 4 0 6 -7 10 -15 10 -8
0 -15 -2 -15 -4z"/>
<path d="M5290 16220 c-6 -11 -7 -20 -2 -20 6 0 12 9 15 20 3 11 3 20 1 20 -2
0 -8 -9 -14 -20z"/>
<path d="M9228 16233 c7 -3 16 -2 19 1 4 3 -2 6 -13 5 -11 0 -14 -3 -6 -6z"/>
<path d="M9285 16210 c3 -5 11 -10 16 -10 6 0 7 5 4 10 -3 6 -11 10 -16 10 -6
0 -7 -4 -4 -10z"/>
<path d="M9338 16183 c7 -3 16 -2 19 1 4 3 -2 6 -13 5 -11 0 -14 -3 -6 -6z"/>
<path d="M5301 16171 c-7 -5 -11 -15 -9 -22 3 -10 8 -7 17 9 13 24 12 26 -8
13z"/>
<path d="M5325 16110 c3 -5 8 -10 11 -10 2 0 4 5 4 10 0 6 -5 10 -11 10 -5 0
-7 -4 -4 -10z"/>
<path d="M5267 16103 c-12 -11 -8 -23 8 -23 8 0 15 7 15 15 0 16 -12 20 -23 8z"/>
<path d="M5215 15980 c-3 -5 -1 -10 4 -10 6 0 11 5 11 10 0 6 -2 10 -4 10 -3
0 -8 -4 -11 -10z"/>
<path d="M15227 15924 c-4 -4 -4 -11 0 -17 4 -6 6 -57 5 -114 -1 -84 2 -103
14 -103 7 0 14 -4 14 -10 0 -5 -7 -10 -15 -10 -17 0 -17 -5 -6 -35 8 -18 12
-16 50 25 37 40 41 49 36 80 -3 19 -14 52 -24 72 -10 20 -15 42 -10 49 4 7 2
18 -4 25 -7 7 -18 20 -25 29 -14 16 -25 19 -35 9z m66 -120 c9 -9 -4 -35 -14
-28 -5 3 -9 12 -9 20 0 14 12 19 23 8z m0 -94 c-3 -11 -9 -20 -13 -20 -12 0
-23 38 -15 50 11 18 34 -8 28 -30z"/>
<path d="M11648 15913 c7 -3 16 -2 19 1 4 3 -2 6 -13 5 -11 0 -14 -3 -6 -6z"/>
<path d="M11460 15820 c0 -5 5 -10 10 -10 6 0 10 5 10 10 0 6 -4 10 -10 10 -5
0 -10 -4 -10 -10z"/>
<path d="M11285 15750 c-3 -5 -2 -10 4 -10 5 0 13 5 16 10 3 6 2 10 -4 10 -5
0 -13 -4 -16 -10z"/>
<path d="M11235 15730 c3 -5 8 -10 11 -10 2 0 4 5 4 10 0 6 -5 10 -11 10 -5 0
-7 -4 -4 -10z"/>
<path d="M11140 15710 c0 -5 5 -10 11 -10 5 0 7 5 4 10 -3 6 -8 10 -11 10 -2
0 -4 -4 -4 -10z"/>
<path d="M15320 15648 c0 -8 9 -23 20 -33 16 -15 20 -15 20 -3 0 8 -9 23 -20
33 -16 15 -20 15 -20 3z"/>
<path d="M10341 15584 c0 -11 3 -14 6 -6 3 7 2 16 -1 19 -3 4 -6 -2 -5 -13z"/>
<path d="M15325 15590 c3 -5 8 -10 11 -10 2 0 4 5 4 10 0 6 -5 10 -11 10 -5 0
-7 -4 -4 -10z"/>
<path d="M15270 15570 c0 -5 5 -10 10 -10 6 0 10 5 10 10 0 6 -4 10 -10 10 -5
0 -10 -4 -10 -10z"/>
<path d="M15387 15355 c9 -161 9 -220 0 -290 -4 -27 -13 -143 -22 -257 -8
-113 -17 -212 -20 -220 -2 -7 -9 -92 -15 -188 -11 -164 -18 -229 -41 -375 -5
-33 -14 -91 -19 -130 -5 -38 -16 -110 -24 -160 -18 -106 -21 -168 -6 -145 5 8
10 26 10 39 0 14 4 38 9 55 9 30 29 138 50 276 24 155 43 268 51 310 5 25 12
65 16 90 4 27 20 63 40 91 19 26 34 52 34 58 0 6 5 11 10 11 6 0 10 6 10 14 0
8 7 17 16 20 8 3 12 11 9 17 -5 6 -20 -7 -39 -33 -80 -113 -117 -139 -78 -54
16 33 23 71 26 145 5 103 10 126 27 116 5 -4 9 3 9 14 0 11 -5 23 -11 27 -8 4
-7 9 2 15 11 7 14 53 12 234 -1 138 -6 231 -12 239 -6 6 -8 22 -4 34 3 13 1
22 -5 22 -6 0 -11 12 -11 28 0 49 -8 98 -20 118 -8 15 -9 -14 -4 -121z"/>
<path d="M16005 15340 c-3 -5 -1 -10 4 -10 6 0 11 5 11 10 0 6 -2 10 -4 10 -3
0 -8 -4 -11 -10z"/>
<path d="M15961 15274 c0 -11 3 -14 6 -6 3 7 2 16 -1 19 -3 4 -6 -2 -5 -13z"/>
<path d="M15927 15227 c-9 -15 -17 -29 -17 -32 0 -9 -54 -90 -62 -93 -5 -2 -8
-8 -8 -14 0 -5 -9 -23 -21 -40 -12 -16 -19 -31 -16 -34 7 -7 149 216 145 228
-2 6 -12 -1 -21 -15z"/>
<path d="M15757 14961 c-15 -22 -27 -46 -26 -53 0 -7 5 -3 11 10 6 12 15 22
20 22 4 0 8 6 8 14 0 8 5 16 12 18 6 2 9 10 7 17 -3 8 -16 -3 -32 -28z"/>
<path d="M16590 14951 c0 -12 5 -21 10 -21 6 0 10 6 10 14 0 8 -4 18 -10 21
-5 3 -10 -3 -10 -14z"/>
<path d="M16610 14906 c0 -8 5 -18 10 -21 6 -3 10 3 10 14 0 12 -4 21 -10 21
-5 0 -10 -6 -10 -14z"/>
<path d="M15697 14877 c-20 -30 -21 -37 -7 -37 6 0 10 6 10 14 0 8 5 16 12 18
6 2 9 10 7 17 -3 9 -11 5 -22 -12z"/>
<path d="M16644 14833 c8 -16 17 -37 20 -47 4 -10 9 -16 13 -12 8 7 -29 86
-40 86 -5 0 -1 -12 7 -27z"/>
<path d="M15652 14810 c-18 -29 -15 -36 8 -15 20 18 26 35 12 35 -4 0 -13 -9
-20 -20z"/>
<path d="M15616 14755 c-3 -8 -1 -15 4 -15 6 0 10 7 10 15 0 8 -2 15 -4 15 -2
0 -6 -7 -10 -15z"/>
<path d="M16680 14747 c0 -8 3 -17 7 -21 9 -8 26 -54 69 -185 19 -58 39 -110
45 -117 6 -7 9 -18 8 -26 -2 -7 3 -31 9 -53 28 -100 45 -172 45 -197 0 -16 4
-28 10 -28 5 0 6 -11 3 -26 -5 -17 0 -34 13 -52 15 -22 18 -41 16 -99 -2 -61
0 -71 13 -66 12 5 14 2 8 -12 -4 -12 0 -24 13 -37 24 -22 18 -56 -6 -36 -11 9
-16 9 -24 -3 -12 -20 -11 -29 4 -29 6 0 17 -11 24 -25 9 -20 8 -25 -3 -25 -17
0 -12 -92 11 -228 26 -147 34 -246 23 -259 -6 -8 -6 -18 1 -32 6 -11 8 -26 5
-34 -3 -9 0 -26 7 -38 9 -17 9 -24 0 -27 -14 -5 -15 -44 -1 -58 5 -5 12 -125
15 -279 4 -174 9 -273 17 -282 7 -9 8 -34 3 -76 -4 -34 -7 -69 -7 -77 7 -166
7 -252 0 -256 -5 -3 -6 -15 -2 -27 4 -12 8 -140 9 -285 1 -174 5 -266 12 -273
6 -6 9 -28 5 -51 -5 -38 -4 -40 17 -33 12 4 21 2 21 -4 0 -16 26 -13 40 4 7 9
19 14 27 11 7 -3 21 3 30 14 10 10 32 22 48 26 17 4 36 16 43 26 7 10 18 15
24 12 7 -5 9 -2 5 8 -8 22 2 29 23 18 15 -8 16 -5 10 31 -9 46 0 91 18 97 14
4 16 -20 2 -34 -11 -11 8 -74 23 -74 14 0 20 32 9 50 -6 10 -7 21 -3 26 5 5
11 21 15 35 5 21 2 28 -15 32 -17 5 -19 9 -9 26 6 12 15 21 21 21 6 0 8 11 4
28 -4 20 -1 33 10 42 8 7 15 18 15 26 0 7 6 17 13 21 6 4 18 18 25 31 10 18
10 26 0 43 -11 17 -10 22 5 31 14 7 17 17 12 35 -3 14 -2 30 3 36 5 7 12 24
16 40 6 25 29 37 39 20 2 -5 2 -2 0 5 -1 8 4 23 12 35 8 12 15 27 15 34 0 19
-30 16 -37 -4 -4 -10 -22 -32 -40 -51 -18 -18 -33 -42 -33 -52 0 -11 -4 -20
-9 -20 -5 0 -11 -9 -14 -20 -3 -11 -10 -20 -16 -20 -17 0 -13 37 4 44 19 7 19
33 0 53 -9 8 -13 18 -10 21 3 3 10 1 17 -6 8 -8 17 -6 36 9 33 26 53 64 40 77
-7 7 -4 20 8 40 14 25 15 34 5 45 -9 12 -7 24 15 62 21 38 23 47 10 42 -13 -5
-16 -3 -12 11 2 9 1 35 -3 57 -5 30 -11 39 -24 37 -19 -3 -22 9 -6 25 8 8 7
16 -2 31 -11 18 -10 24 5 41 10 11 16 26 13 33 -4 10 -6 10 -6 1 -1 -7 -6 -13
-11 -13 -15 0 -1 53 18 68 10 7 11 12 4 12 -7 0 -12 16 -12 41 0 32 -4 42 -20
46 -23 6 -27 33 -5 33 8 0 15 -7 15 -15 0 -8 5 -15 10 -15 12 0 13 23 3 34 -4
4 -8 13 -8 19 -1 21 -25 95 -40 124 -8 15 -15 38 -15 50 0 12 -4 25 -10 28 -5
3 -10 13 -10 21 0 8 5 14 10 14 6 0 10 -9 10 -19 0 -11 5 -23 10 -26 6 -3 10
-15 10 -26 0 -10 4 -19 8 -19 8 0 28 -43 52 -110 6 -19 17 -46 24 -60 7 -14
30 -79 51 -145 20 -66 41 -129 46 -140 10 -25 48 -141 59 -180 5 -16 21 -77
38 -135 16 -58 35 -127 41 -155 47 -195 91 -336 114 -364 7 -8 12 -28 13 -45
1 -17 21 -85 46 -151 24 -66 51 -141 58 -167 16 -53 24 -56 78 -31 47 21 47
20 35 35 -6 7 -22 49 -38 93 -15 44 -31 89 -35 100 -5 11 -20 54 -35 95 -15
41 -30 84 -35 95 -5 11 -21 56 -36 100 -15 44 -31 84 -35 89 -5 6 -9 18 -9 28
0 10 -4 26 -10 36 -5 9 -26 67 -45 127 -20 61 -40 119 -45 130 -4 11 -14 36
-20 55 -7 19 -28 78 -47 130 -19 52 -37 105 -40 118 -3 12 -9 25 -14 28 -5 3
-9 13 -9 23 0 19 -35 106 -90 226 -32 70 -54 119 -83 185 -8 19 -27 62 -42 95
-15 33 -33 74 -40 90 -30 71 -49 114 -75 170 -30 64 -63 140 -86 193 -30 68
-43 99 -68 155 -14 31 -38 83 -52 115 -14 31 -32 71 -39 87 -48 112 -92 211
-126 281 -16 33 -29 63 -29 67 0 6 -22 55 -89 202 -16 33 -35 76 -43 95 -42
93 -62 138 -79 174 -11 22 -19 46 -19 53 0 7 -4 13 -10 13 -5 0 -10 -6 -10
-13z m297 -1099 c-3 -8 -6 -5 -6 6 -1 11 2 17 5 13 3 -3 4 -12 1 -19z m403
-529 c0 -6 -4 -7 -10 -4 -5 3 -10 11 -10 16 0 6 5 7 10 4 6 -3 10 -11 10 -16z
m30 -45 c0 -8 -4 -14 -10 -14 -5 0 -10 9 -10 21 0 11 5 17 10 14 6 -3 10 -13
10 -21z m50 -254 c0 -5 -2 -10 -4 -10 -3 0 -8 5 -11 10 -3 6 -1 10 4 10 6 0
11 -4 11 -10z m-10 -140 c0 -5 -4 -10 -10 -10 -5 0 -10 5 -10 10 0 6 5 10 10
10 6 0 10 -4 10 -10z m-80 -212 c0 -16 -3 -19 -11 -11 -6 6 -8 16 -5 22 11 17
16 13 16 -11z m88 -65 c-2 -10 -11 -19 -21 -21 -16 -3 -17 -1 -5 17 16 25 31
27 26 4z m-18 -57 c0 -8 -4 -18 -10 -21 -5 -3 -10 -14 -10 -23 0 -10 -9 -23
-20 -30 -19 -12 -20 -11 -14 15 12 49 54 94 54 59z m-40 -126 c0 -5 -5 -10
-11 -10 -5 0 -7 5 -4 10 3 6 8 10 11 10 2 0 4 -4 4 -10z m-22 -80 c-7 -10 -14
-17 -17 -15 -4 4 18 35 25 35 2 0 -1 -9 -8 -20z m22 -230 c0 -5 -4 -10 -10
-10 -5 0 -10 5 -10 10 0 6 5 10 10 10 6 0 10 -4 10 -10z m-33 -122 c-3 -7 -5
-2 -5 12 0 14 2 19 5 13 2 -7 2 -19 0 -25z"/>
<path d="M5228 14739 c-16 -9 -14 -49 3 -49 5 0 9 -7 9 -15 0 -8 -3 -15 -7
-15 -12 0 -47 -79 -40 -87 4 -3 7 -2 7 4 0 6 9 9 20 6 11 -3 20 -12 20 -19 0
-20 18 -17 24 4 4 10 -1 33 -10 51 -13 25 -14 35 -4 41 8 5 9 19 3 48 -7 34
-11 39 -25 31z"/>
<path d="M5330 14634 c0 -8 5 -12 10 -9 6 4 8 11 5 16 -9 14 -15 11 -15 -7z"/>
<path d="M15525 14630 c-3 -5 -1 -10 4 -10 6 0 11 5 11 10 0 6 -2 10 -4 10 -3
0 -8 -4 -11 -10z"/>
<path d="M5216 14521 c-4 -5 2 -14 11 -20 17 -9 17 -11 -2 -25 -17 -12 -18
-18 -8 -35 7 -10 10 -29 8 -41 -8 -40 -8 -95 -1 -116 4 -12 0 -33 -9 -50 -14
-27 -15 -27 -15 -6 0 13 -4 20 -10 17 -6 -4 -9 -177 -7 -479 2 -398 5 -477 17
-492 12 -13 12 -18 3 -21 -17 -6 -16 -22 2 -57 14 -27 14 -31 0 -39 -9 -5 -12
-13 -8 -20 5 -7 8 -41 8 -77 0 -54 3 -65 16 -62 11 1 18 -8 23 -29 7 -39 -1
-50 -18 -26 -20 26 -28 21 -24 -15 2 -25 7 -32 21 -30 13 2 17 -4 17 -24 0
-21 -3 -24 -13 -15 -8 6 -16 8 -19 5 -10 -10 4 -44 18 -44 8 0 14 -7 14 -15 0
-19 17 -19 27 -1 6 12 10 10 19 -9 9 -18 9 -22 -1 -19 -7 3 -19 -6 -29 -20
-18 -28 -21 -40 -7 -32 5 4 11 0 14 -6 3 -9 9 -7 20 7 21 27 30 15 21 -30 -4
-23 -9 -32 -14 -25 -11 19 -29 3 -23 -20 4 -14 0 -20 -11 -20 -9 0 -16 -4 -16
-10 0 -5 6 -10 14 -10 8 0 18 5 21 10 3 6 13 10 21 10 27 0 41 25 39 65 -1 22
-3 40 -5 40 -1 0 -4 69 -5 152 -1 84 -4 156 -7 159 -3 3 -4 32 -1 66 4 41 2
62 -6 67 -9 6 -9 19 -2 52 7 31 7 45 -1 50 -14 9 -18 49 -5 49 6 0 6 22 1 58
-4 31 -7 74 -6 95 1 20 -3 37 -8 37 -6 0 -10 7 -10 15 0 8 6 15 13 15 19 0 20
86 1 122 -14 27 -14 31 1 48 11 13 13 20 5 25 -6 4 -9 14 -6 22 3 8 -1 30 -9
50 -17 40 -19 55 -5 33 5 -8 12 -12 15 -8 4 3 0 15 -7 27 -10 17 -10 25 -1 40
9 15 9 21 1 23 -16 6 -19 91 -5 100 9 6 8 11 -3 18 -13 9 -13 12 3 24 16 13
16 14 -4 19 -17 4 -20 9 -12 19 13 17 11 57 -4 84 -14 25 -7 64 16 82 15 12
15 14 -1 23 -19 11 -25 49 -7 49 5 0 7 5 3 12 -4 7 -7 27 -6 45 2 24 -2 33
-13 33 -16 0 -21 16 -6 22 5 2 11 17 13 33 2 24 -1 31 -19 33 -11 2 -24 -1
-27 -7z m12 -363 c-6 -18 -28 -21 -28 -4 0 9 7 16 16 16 9 0 14 -5 12 -12z
m49 -540 c-3 -7 -5 -2 -5 12 0 14 2 19 5 13 2 -7 2 -19 0 -25z m0 -270 c-3 -8
-6 -5 -6 6 -1 11 2 17 5 13 3 -3 4 -12 1 -19z m-17 -228 c0 -5 -4 -10 -10 -10
-5 0 -10 5 -10 10 0 6 5 10 10 10 6 0 10 -4 10 -10z m-25 -61 c-6 -16 -9 -18
-16 -8 -4 8 -3 19 3 26 15 18 21 9 13 -18z m42 -11 c-3 -8 -6 -5 -6 6 -1 11 2
17 5 13 3 -3 4 -12 1 -19z m3 -33 c0 -8 -4 -15 -10 -15 -5 0 -10 7 -10 15 0 8
5 15 10 15 6 0 10 -7 10 -15z"/>
<path d="M5191 14444 c0 -11 3 -14 6 -6 3 7 2 16 -1 19 -3 4 -6 -2 -5 -13z"/>
<path d="M5180 14380 c0 -5 7 -10 15 -10 8 0 15 5 15 10 0 6 -7 10 -15 10 -8
0 -15 -4 -15 -10z"/>
<path d="M6230 14360 c0 -5 5 -10 11 -10 5 0 7 5 4 10 -3 6 -8 10 -11 10 -2 0
-4 -4 -4 -10z"/>
<path d="M5185 14307 c-4 -10 -5 -21 -1 -24 10 -10 18 4 13 24 -4 17 -4 17
-12 0z"/>
<path d="M6265 14170 c3 -5 10 -10 16 -10 5 0 9 5 9 10 0 6 -7 10 -16 10 -8 0
-12 -4 -9 -10z"/>
<path d="M6250 14135 c0 -8 5 -15 10 -15 6 0 10 7 10 15 0 8 -4 15 -10 15 -5
0 -10 -7 -10 -15z"/>
<path d="M6225 14073 c3 -48 5 -52 14 -29 8 22 3 66 -9 66 -4 0 -6 -17 -5 -37z"/>
<path d="M6280 14100 c0 -5 5 -10 10 -10 6 0 10 5 10 10 0 6 -4 10 -10 10 -5
0 -10 -4 -10 -10z"/>
<path d="M6270 14040 c0 -5 5 -10 10 -10 6 0 10 5 10 10 0 6 -4 10 -10 10 -5
0 -10 -4 -10 -10z"/>
<path d="M6240 14010 c0 -5 5 -10 10 -10 6 0 10 5 10 10 0 6 -4 10 -10 10 -5
0 -10 -4 -10 -10z"/>
<path d="M6227 13973 c-13 -13 -7 -21 13 -16 11 3 20 9 20 14 0 10 -24 12 -33
2z"/>
<path d="M6278 13943 c7 -3 16 -2 19 1 4 3 -2 6 -13 5 -11 0 -14 -3 -6 -6z"/>
<path d="M6250 13897 c0 -13 -5 -28 -11 -34 -8 -8 -5 -20 12 -42 26 -35 52
-37 57 -4 3 17 -1 20 -17 16 -16 -4 -21 -1 -21 15 0 11 8 23 18 25 16 4 16 5
0 6 -11 1 -18 9 -18 21 0 11 -4 20 -10 20 -5 0 -10 -10 -10 -23z"/>
<path d="M6210 13785 c0 -8 7 -15 16 -15 14 0 14 -3 4 -15 -9 -11 -10 -19 -3
-26 8 -8 16 -3 28 15 17 26 17 27 -1 41 -25 19 -44 19 -44 0z"/>
<path d="M6295 13747 c-4 -10 -5 -21 -1 -24 10 -10 18 4 13 24 -4 17 -4 17
-12 0z"/>
<path d="M6253 13710 c5 -21 -16 -29 -28 -10 -10 16 -25 12 -25 -6 0 -10 6
-14 15 -10 9 3 15 0 15 -9 0 -8 5 -15 11 -15 13 0 1 -62 -14 -71 -15 -10 -13
-83 2 -113 12 -22 12 -30 1 -51 -7 -14 -17 -25 -22 -25 -4 0 -8 11 -8 25 0 14
-4 25 -10 25 -16 0 -11 -40 9 -68 24 -35 33 -105 16 -129 -10 -13 -10 -23 -2
-41 9 -20 8 -27 -6 -37 -10 -7 -17 -24 -16 -41 1 -17 3 -22 6 -11 7 25 16 21
32 -15 11 -24 11 -33 3 -36 -7 -2 -12 -10 -12 -18 0 -8 -4 -14 -10 -14 -5 0
-10 7 -10 15 0 8 -4 15 -10 15 -13 0 -13 -17 1 -26 6 -3 8 -15 6 -26 -3 -11 0
-21 9 -25 8 -3 14 -10 14 -15 0 -6 7 -16 16 -23 15 -11 15 -14 -1 -39 -15 -23
-16 -32 -7 -47 9 -15 10 -25 1 -41 -8 -14 -8 -23 -1 -27 18 -11 9 -111 -11
-122 -20 -12 -23 -33 -3 -26 11 4 15 -12 20 -76 3 -45 6 -92 6 -104 0 -13 4
-23 8 -23 10 0 10 -153 0 -161 -5 -3 -5 -17 0 -30 5 -13 8 -257 6 -544 -7
-1194 -5 -1554 11 -1655 3 -19 8 -53 11 -75 11 -91 17 -115 25 -115 5 0 9 -20
9 -45 0 -33 4 -45 15 -45 8 0 15 5 15 10 0 6 7 10 16 10 13 0 15 7 10 35 -6
28 -4 35 9 35 18 0 18 1 6 34 -8 19 -6 30 8 48 10 13 21 41 24 63 9 56 19 152
21 205 1 25 5 56 10 69 5 16 4 26 -4 31 -8 5 -9 13 -4 21 5 8 10 23 11 34 2
11 5 30 8 42 3 12 2 24 -2 26 -5 3 -8 130 -7 284 0 153 -2 283 -5 288 -3 6 -6
69 -7 140 -3 178 -15 569 -20 630 -10 123 -23 400 -28 585 -2 41 -6 84 -11 94
-6 13 -5 21 3 24 17 5 15 22 -5 44 -11 12 -13 22 -7 26 11 8 11 95 0 131 -5
14 -3 33 4 47 9 16 10 27 3 36 -6 7 -11 71 -12 143 -2 202 -7 298 -16 319 -6
14 -5 17 4 11 10 -6 11 -3 4 11 -11 21 -10 70 0 81 10 10 8 23 -3 23 -5 0 -10
-7 -10 -15 0 -8 -5 -15 -10 -15 -16 0 -26 33 -12 38 14 4 16 32 3 32 -10 0
-10 32 0 40 11 9 19 60 10 60 -5 0 -15 -13 -23 -30 -7 -16 -16 -30 -20 -30
-14 0 -19 21 -8 35 10 12 10 19 -1 32 -12 15 -12 16 7 11 17 -4 20 -2 17 13
-6 22 -23 25 -41 7 -17 -17 -15 -2 4 27 9 14 14 34 11 46 -5 17 -2 20 14 16
14 -4 19 0 19 16 0 11 7 29 17 39 14 16 14 18 1 18 -9 0 -18 -9 -21 -20 -5
-20 -37 -29 -37 -10 0 6 5 10 10 10 15 0 12 19 -4 36 -20 20 -29 17 -23 -6z
m37 -310 c0 -5 -4 -10 -10 -10 -5 0 -10 5 -10 10 0 6 5 10 10 10 6 0 10 -4 10
-10z m37 -152 c-3 -8 -6 -5 -6 6 -1 11 2 17 5 13 3 -3 4 -12 1 -19z m13 -58
c0 -5 -4 -10 -10 -10 -5 0 -10 5 -10 10 0 6 5 10 10 10 6 0 10 -4 10 -10z
m-92 -34 c3 -12 -1 -17 -10 -14 -7 3 -15 13 -16 22 -3 12 1 17 10 14 7 -3 15
-13 16 -22z"/>
<path d="M15000 13709 c0 -11 5 -17 10 -14 6 3 10 13 10 21 0 8 -4 14 -10 14
-5 0 -10 -9 -10 -21z"/>
<path d="M15009 13663 c-2 -24 4 -127 11 -188 26 -200 32 -241 41 -249 11 -12
11 -4 10 128 -1 54 -4 102 -6 107 -6 9 -35 153 -38 187 -2 20 -16 32 -18 15z"/>
<path d="M6192 13648 c6 -18 28 -21 28 -4 0 9 -7 16 -16 16 -9 0 -14 -5 -12
-12z"/>
<path d="M6320 13600 c0 -5 5 -10 10 -10 6 0 10 5 10 10 0 6 -4 10 -10 10 -5
0 -10 -4 -10 -10z"/>
<path d="M15206 13518 c-3 -17 -2 -36 4 -42 7 -7 10 4 10 32 0 50 -5 54 -14
10z"/>
<path d="M15188 13444 c-5 -4 -8 -19 -8 -33 0 -18 3 -22 11 -14 6 6 9 21 7 33
-1 12 -6 18 -10 14z"/>
<path d="M15160 13339 c0 -17 4 -28 10 -24 6 3 10 17 10 31 0 13 -4 24 -10 24
-5 0 -10 -14 -10 -31z"/>
<path d="M15138 13273 c-6 -23 1 -45 13 -37 12 7 12 54 0 54 -5 0 -11 -8 -13
-17z"/>
<path d="M15120 13196 c-12 -33 -13 -66 -1 -66 9 0 23 81 16 89 -3 2 -9 -8
-15 -23z"/>
<path d="M16340 13190 c0 -5 5 -10 10 -10 6 0 10 5 10 10 0 6 -4 10 -10 10 -5
0 -10 -4 -10 -10z"/>
<path d="M15095 13110 c-4 -6 -4 -46 1 -88 l8 -77 7 80 c7 76 0 111 -16 85z"/>
<path d="M6198 12933 c7 -3 16 -2 19 1 4 3 -2 6 -13 5 -11 0 -14 -3 -6 -6z"/>
<path d="M15102 12905 c0 -16 2 -22 5 -12 2 9 2 23 0 30 -3 6 -5 -1 -5 -18z"/>
<path d="M15180 12830 c0 -5 5 -10 10 -10 6 0 10 5 10 10 0 6 -4 10 -10 10 -5
0 -10 -4 -10 -10z"/>
<path d="M15110 12790 c0 -5 5 -10 10 -10 6 0 10 5 10 10 0 6 -4 10 -10 10 -5
0 -10 -4 -10 -10z"/>
<path d="M5208 12784 c-3 -5 -2 -20 2 -34 6 -21 8 -22 14 -8 8 18 -8 57 -16
42z"/>
<path d="M15123 12679 c4 -46 11 -127 17 -179 10 -94 28 -349 29 -422 1 -31 5
-38 20 -38 11 0 22 8 24 18 4 13 5 11 6 -5 0 -13 5 -23 10 -23 6 0 9 -8 9 -17
-1 -10 2 -30 5 -45 6 -22 4 -28 -8 -28 -8 0 -15 -5 -15 -11 0 -5 -4 -8 -9 -4
-5 3 -8 25 -6 50 3 35 0 45 -12 45 -13 0 -14 -11 -9 -67 19 -218 24 -1215 8
-1478 -7 -113 -7 -315 1 -507 2 -55 4 -57 62 -111 33 -30 98 -84 144 -122 46
-37 93 -76 105 -87 12 -11 33 -26 48 -34 24 -13 32 -12 63 0 19 8 35 17 35 20
0 2 -13 11 -30 19 -21 11 -30 12 -33 4 -2 -7 -20 5 -39 26 -23 24 -44 37 -61
37 -15 0 -31 9 -41 25 -9 14 -22 25 -29 25 -7 0 -13 8 -14 18 -1 9 -5 30 -9
45 -4 20 -1 33 11 47 15 17 16 22 5 36 -10 11 -11 17 -2 23 9 5 10 66 1 66 -1
0 -3 27 -4 60 -2 33 -6 98 -10 145 -7 84 -10 138 -19 320 -2 52 -5 95 -6 95
-2 0 -11 271 -11 318 0 20 0 47 0 60 0 71 -1 87 -9 87 -5 0 -7 7 -3 16 3 9 0
20 -8 25 -12 8 -12 10 1 18 12 8 12 16 3 43 -6 18 -10 61 -9 96 2 35 -1 65 -6
68 -5 3 -2 14 8 25 11 12 14 24 8 36 -9 20 -8 13 -24 151 -7 56 -9 109 -6 118
4 9 1 23 -5 30 -6 7 -7 19 -3 25 11 18 13 70 3 63 -5 -3 -9 0 -9 7 0 7 -7 20
-16 30 -11 13 -13 22 -6 35 7 13 6 22 -4 32 -21 20 -17 44 11 74 29 32 36 92
9 81 -9 -3 -14 -13 -11 -23 3 -13 0 -16 -14 -13 -31 9 -21 63 12 63 23 0 25
13 4 30 -17 14 -20 30 -5 30 6 0 10 -8 10 -17 0 -13 3 -14 12 -5 8 8 8 15 -1
26 -7 8 -10 20 -6 26 3 6 -3 10 -15 10 -14 0 -24 8 -27 21 -3 12 -11 18 -19
15 -23 -9 -16 19 8 29 29 13 35 35 10 42 -12 3 -22 16 -26 35 -11 56 -21 18
-21 -83 0 -98 5 -115 24 -82 5 10 13 14 18 10 4 -5 -1 -16 -12 -24 -14 -11
-16 -17 -7 -20 6 -3 12 -14 12 -25 0 -17 -3 -18 -15 -8 -12 10 -15 10 -15 -4
0 -9 -6 -16 -14 -16 -10 0 -13 31 -14 153 0 200 -11 339 -26 352 -13 11 -10
39 4 30 4 -2 8 7 8 21 0 16 -5 23 -13 20 -15 -5 -27 40 -19 71 3 12 0 24 -6
28 -10 6 -11 -11 -7 -76z m107 -786 c0 -5 -5 -15 -10 -23 -8 -12 -10 -11 -10
8 0 12 5 22 10 22 6 0 10 -3 10 -7z m10 -88 c0 -8 -4 -15 -10 -15 -5 0 -10 7
-10 15 0 8 5 15 10 15 6 0 10 -7 10 -15z m25 -25 c3 -5 1 -10 -4 -10 -6 0 -11
5 -11 10 0 6 2 10 4 10 3 0 8 -4 11 -10z m-25 -35 c0 -8 -4 -15 -10 -15 -5 0
-10 7 -10 15 0 8 5 15 10 15 6 0 10 -7 10 -15z"/>
<path d="M5216 12674 c-8 -21 -8 -24 3 -24 12 0 22 28 12 35 -5 3 -12 -2 -15
-11z"/>
<path d="M5303 12603 c-16 -14 -20 -26 -16 -50 3 -18 11 -33 17 -33 17 0 36
58 27 81 -7 20 -8 20 -28 2z"/>
<path d="M15195 12509 c-4 -6 -5 -11 -4 -12 2 -2 11 -8 20 -15 14 -11 16 -9
11 13 -5 26 -16 32 -27 14z"/>
<path d="M15250 12510 c0 -5 5 -10 10 -10 6 0 10 5 10 10 0 6 -4 10 -10 10 -5
0 -10 -4 -10 -10z"/>
<path d="M17500 12500 c0 -5 5 -10 10 -10 6 0 10 5 10 10 0 6 -4 10 -10 10 -5
0 -10 -4 -10 -10z"/>
<path d="M5303 12483 c-15 -6 -17 -39 -3 -48 12 -7 23 17 18 38 -1 8 -9 12
-15 10z"/>
<path d="M15213 12435 c-15 -16 -17 -55 -4 -55 19 0 39 30 34 50 -6 23 -13 25
-30 5z"/>
<path d="M15250 12371 c-7 -14 -7 -22 1 -27 12 -7 29 12 29 34 0 19 -18 14
-30 -7z"/>
<path d="M5221 12324 c0 -11 3 -14 6 -6 3 7 2 16 -1 19 -3 4 -6 -2 -5 -13z"/>
<path d="M15276 12313 c-6 -14 -5 -15 5 -6 7 7 10 15 7 18 -3 3 -9 -2 -12 -12z"/>
<path d="M5290 12295 c0 -8 7 -15 15 -15 8 0 15 7 15 15 0 8 -7 15 -15 15 -8
0 -15 -7 -15 -15z"/>
<path d="M15267 12244 c-8 -8 1 -24 14 -24 5 0 9 7 9 15 0 15 -12 20 -23 9z"/>
<path d="M17522 12208 c-14 -14 -16 -38 -4 -38 12 0 32 23 32 37 0 16 -12 17
-28 1z"/>
<path d="M17503 12025 c-17 -19 -16 -30 2 -45 13 -11 15 -7 15 24 0 40 0 41
-17 21z"/>
<path d="M17482 11929 c-12 -19 -11 -19 8 -9 11 6 18 15 15 21 -8 12 -8 12
-23 -12z"/>
<path d="M15290 11926 c0 -9 5 -16 10 -16 6 0 10 4 10 9 0 6 -4 13 -10 16 -5
3 -10 -1 -10 -9z"/>
<path d="M17655 11527 c-11 -7 -27 -16 -35 -22 -8 -5 -23 -8 -32 -7 -12 2 -16
-2 -12 -11 7 -21 -14 -31 -32 -16 -11 9 -18 9 -32 -3 -9 -9 -35 -22 -57 -29
-22 -8 -55 -22 -73 -31 -18 -10 -41 -18 -51 -18 -10 0 -24 -7 -32 -16 -9 -11
-22 -14 -42 -10 -25 5 -28 4 -18 -8 10 -11 8 -16 -8 -21 -12 -3 -30 -3 -41 0
-15 5 -20 2 -20 -13 0 -26 -11 -34 -27 -20 -17 14 -45 -18 -37 -44 6 -19 -8
-23 -53 -19 -13 1 -23 -3 -23 -9 0 -5 6 -10 14 -10 24 0 29 -20 10 -41 -12
-14 -14 -23 -7 -30 7 -7 19 -3 37 16 26 26 28 26 41 9 8 -11 15 -26 15 -35 0
-9 7 -22 15 -29 8 -7 15 -23 15 -36 0 -15 6 -24 15 -24 18 0 18 5 5 30 -7 13
-7 21 0 25 7 4 5 14 -5 28 -16 23 -20 47 -7 47 16 0 40 -56 35 -82 -3 -18 2
-37 16 -56 35 -49 31 -64 -29 -115 -30 -26 -67 -55 -82 -65 -16 -9 -28 -22
-28 -29 0 -7 38 8 88 34 48 25 125 66 172 90 47 24 92 49 100 54 8 5 50 25 93
45 42 19 77 40 77 45 0 14 -10 11 -75 -21 -33 -16 -66 -30 -73 -30 -7 0 -20
-4 -30 -8 -47 -23 -79 -40 -98 -52 -29 -18 -54 -6 -54 24 0 14 -5 28 -10 31
-6 4 -8 10 -5 15 3 4 -2 25 -11 46 -9 22 -16 51 -16 67 0 15 -6 40 -14 55 -20
38 -17 48 6 27 11 -10 20 -24 20 -32 0 -13 19 -53 31 -63 3 -3 9 -14 14 -25 8
-19 9 -19 12 3 3 12 13 27 23 32 11 6 23 25 28 43 4 17 17 36 29 41 30 14 49
46 32 57 -8 4 -10 12 -5 16 5 4 11 2 13 -4 8 -22 24 -14 34 17 6 17 17 30 25
30 8 0 14 5 14 10 0 6 5 10 11 10 6 0 8 -8 4 -19 -3 -11 -1 -22 5 -26 15 -9
42 15 36 32 -8 20 44 16 60 -4 12 -16 13 -14 7 17 -3 19 -2 32 2 27 5 -4 19 0
31 8 23 15 42 5 29 -15 -9 -15 5 -12 22 5 14 14 12 18 -12 41 -26 24 -26 26
-9 38 16 13 17 15 2 30 -19 18 -16 18 -43 3z m-145 -113 c0 -8 -32 -33 -43
-34 -4 0 -2 9 5 20 12 19 38 28 38 14z m-120 -149 c0 -12 -28 -4 -34 11 -12
31 -6 38 14 16 11 -12 20 -24 20 -27z"/>
<path d="M17841 11204 c-20 -14 -28 -24 -18 -24 9 0 19 5 22 10 3 6 17 10 31
10 15 0 24 6 24 15 0 21 -19 17 -59 -11z"/>
<path d="M17775 11170 c-3 -5 -2 -10 4 -10 5 0 13 5 16 10 3 6 2 10 -4 10 -5
0 -13 -4 -16 -10z"/>
<path d="M17089 11144 c-12 -14 -11 -16 5 -13 11 2 21 10 24 17 5 17 -13 15
-29 -4z"/>
<path d="M17680 11129 c0 -5 -4 -8 -8 -5 -4 2 -14 1 -22 -5 -12 -7 -11 -9 6
-9 12 0 27 7 34 15 9 10 9 15 1 15 -6 0 -11 -5 -11 -11z"/>
<path d="M17187 11032 c-4 -5 0 -15 8 -22 8 -7 15 -19 15 -26 0 -8 5 -14 10
-14 15 0 11 23 -9 49 -10 14 -21 19 -24 13z"/>
<path d="M16820 10647 c-14 -6 -45 -20 -70 -31 -25 -11 -56 -27 -70 -37 -14
-9 -41 -25 -60 -35 -80 -43 -287 -193 -338 -244 l-54 -55 164 -11 c143 -10
289 -25 396 -40 18 -3 32 -11 32 -19 0 -13 27 -62 87 -157 13 -21 30 -38 38
-38 24 0 18 19 -17 53 -25 26 -78 122 -78 142 0 3 8 5 18 5 10 0 28 7 40 16
20 14 23 14 28 -1 4 -9 -1 -24 -10 -34 -12 -13 -14 -21 -7 -26 6 -3 14 1 17 9
10 26 20 19 34 -24 7 -22 17 -40 22 -40 4 0 8 2 8 3 0 21 -31 200 -36 208 -3
6 -14 45 -25 87 -10 42 -28 104 -39 137 -35 102 -39 116 -33 131 6 17 -12 17
-47 1z m-470 -346 c0 -10 -24 -21 -43 -21 -7 0 -3 7 7 15 22 17 36 19 36 6z
m158 -28 c-10 -2 -28 -2 -40 0 -13 2 -5 4 17 4 22 1 32 -1 23 -4z"/>
<path d="M5252 10405 c0 -16 2 -22 5 -12 2 9 2 23 0 30 -3 6 -5 -1 -5 -18z"/>
<path d="M16186 10422 c-2 -4 -1 -14 5 -22 7 -12 9 -10 9 8 0 23 -5 28 -14 14z"/>
<path d="M16204 10304 c-4 -14 -2 -30 5 -37 8 -8 11 -1 11 26 0 43 -7 48 -16
11z"/>
<path d="M5248 10254 c-5 -4 -8 -19 -8 -33 0 -18 3 -22 11 -14 6 6 9 21 7 33
-1 12 -6 18 -10 14z"/>
<path d="M15127 10183 c-3 -16 -1 -35 4 -43 6 -10 8 -2 9 28 0 48 -5 55 -13
15z"/>
<path d="M16627 10160 c-9 -11 -23 -20 -30 -20 -8 0 -22 -9 -32 -20 -10 -11
-13 -20 -7 -20 7 0 12 -7 12 -15 0 -8 -4 -15 -8 -15 -4 0 -15 -12 -24 -27 -10
-16 -28 -41 -42 -57 -21 -24 -28 -27 -41 -16 -12 10 -15 9 -15 -7 0 -10 5 -24
12 -31 9 -9 9 -12 0 -12 -7 0 -12 5 -12 10 0 6 -7 10 -15 10 -8 0 -15 -7 -15
-15 0 -8 -4 -15 -8 -15 -4 0 -21 -17 -37 -39 -37 -47 -114 -139 -137 -163 -21
-21 -23 -35 -5 -41 6 -2 8 -8 4 -13 -4 -5 -12 -2 -17 5 -6 11 -29 -5 -97 -67
-102 -93 -158 -133 -176 -126 -16 6 -14 93 3 124 9 17 7 29 -10 64 -20 42 -20
45 -4 79 22 47 13 71 -26 65 -24 -4 -30 -1 -30 13 0 9 5 19 12 21 14 5 4 38
-12 38 -5 0 -10 -7 -10 -15 0 -8 -7 -15 -15 -15 -9 0 -20 -10 -26 -22 -15 -34
-35 -68 -48 -81 -15 -15 -14 -44 2 -50 7 -3 -13 -29 -50 -65 -35 -33 -63 -64
-63 -70 0 -5 66 -42 148 -82 228 -112 263 -124 289 -104 10 7 30 14 45 14 15
0 30 5 33 10 3 6 15 10 26 10 10 0 19 5 19 10 0 6 -4 10 -10 10 -5 0 -10 3
-10 8 0 14 78 102 82 92 1 -5 23 8 47 29 40 35 43 42 37 73 -6 31 -1 40 50 99
31 35 62 78 69 94 8 17 27 43 44 59 17 17 31 36 31 44 0 9 11 30 25 48 14 18
26 41 28 51 2 10 9 31 16 46 13 33 6 53 -14 37 -10 -8 -15 -8 -20 0 -9 15 12
38 38 42 12 2 23 11 25 21 5 23 -10 22 -31 -3z m-56 -148 c-13 -24 -51 -58
-51 -45 0 6 7 16 15 23 8 7 15 19 15 26 0 8 7 14 15 14 12 0 13 -4 6 -18z
m-153 -137 c-13 -13 -24 -20 -26 -15 -4 12 30 50 40 44 5 -3 -2 -16 -14 -29z
m-519 -221 c-6 -7 -15 -11 -21 -8 -5 3 -4 12 3 20 6 7 15 11 21 8 5 -3 4 -12
-3 -20z m-42 -30 c-3 -3 -12 -4 -19 -1 -8 3 -5 6 6 6 11 1 17 -2 13 -5z m303
-39 c0 -13 -50 -58 -56 -52 -4 4 3 18 16 32 22 23 40 32 40 20z m150 -30 c-7
-9 -15 -13 -18 -10 -3 2 1 11 8 20 7 9 15 13 18 10 3 -2 -1 -11 -8 -20z m-163
-57 c-3 -8 -6 -5 -6 6 -1 11 2 17 5 13 3 -3 4 -12 1 -19z m-70 -28 c-6 -25 -3
-30 13 -30 13 0 20 7 20 18 0 21 9 34 20 27 12 -7 -12 -76 -28 -82 -16 -7 -62
35 -62 57 0 18 19 40 33 40 5 0 7 -13 4 -30z"/>
<path d="M15126 10079 c-10 -49 -7 -139 4 -139 6 0 10 7 10 16 0 10 6 14 15
10 17 -6 22 29 5 39 -5 3 -10 28 -10 56 0 55 -14 66 -24 18z"/>
<path d="M16530 10079 c0 -5 5 -7 10 -4 6 3 10 8 10 11 0 2 -4 4 -10 4 -5 0
-10 -5 -10 -11z"/>
<path d="M16460 9994 c0 -8 5 -12 10 -9 6 3 10 10 10 16 0 5 -4 9 -10 9 -5 0
-10 -7 -10 -16z"/>
<path d="M15134 9916 c-3 -9 -1 -23 6 -31 10 -12 9 -15 -5 -15 -16 0 -17 -7
-12 -60 3 -39 1 -59 -6 -57 -6 1 -11 -17 -12 -42 0 -25 -7 -47 -13 -49 -7 -2
-10 -8 -6 -13 3 -5 8 -58 11 -117 3 -59 9 -109 13 -112 15 -10 27 -216 30
-525 1 -88 5 -164 8 -170 8 -13 8 -21 26 -530 16 -444 21 -905 18 -1545 -1
-58 -1 -130 -1 -160 0 -179 -10 -519 -15 -540 -4 -14 -3 -54 3 -90 6 -44 5
-69 -2 -78 -8 -10 -8 -15 0 -20 12 -8 11 -69 -2 -116 -5 -20 -4 -31 6 -37 12
-7 12 -12 1 -30 -10 -15 -11 -24 -3 -28 7 -5 9 -31 6 -72 -10 -122 -13 -269
-5 -274 11 -7 6 -85 -6 -93 -10 -8 -13 -57 -3 -66 3 -3 2 -32 -2 -63 -4 -31
-6 -60 -3 -65 3 -4 2 -14 -3 -20 -4 -7 -8 -35 -9 -63 0 -27 -4 -65 -8 -84 -6
-24 -4 -36 5 -41 10 -7 10 -12 -2 -26 -11 -13 -11 -18 -1 -21 17 -6 15 -42 -3
-50 -14 -5 -14 -8 2 -25 20 -22 21 -81 1 -105 -10 -13 -10 -17 0 -20 16 -6 15
-42 -2 -49 -16 -6 -13 -92 5 -125 8 -15 8 -24 0 -32 -14 -14 -14 -47 -1 -47
19 0 10 -49 -12 -64 -17 -12 -20 -18 -10 -28 9 -9 12 -9 12 0 0 7 4 12 9 12 6
0 3 -12 -5 -27 -7 -16 -14 -38 -14 -49 0 -12 -6 -37 -14 -56 -9 -21 -11 -40
-6 -48 5 -8 6 -18 3 -24 -10 -15 -9 -66 1 -66 5 0 2 -8 -7 -17 -16 -19 -28
-136 -14 -149 11 -11 8 -46 -6 -74 -11 -21 -11 -27 2 -37 13 -10 14 -15 4 -32
-7 -12 -13 -38 -13 -58 -1 -21 -7 -49 -15 -63 -20 -35 -20 -60 0 -34 15 19 16
19 13 -1 -1 -11 1 -26 6 -33 4 -7 4 -25 0 -40 -4 -15 -6 -35 -5 -45 1 -10 -3
-25 -10 -33 -12 -15 -16 -94 -9 -221 2 -40 -1 -67 -9 -77 -9 -10 -11 -28 -6
-52 3 -20 3 -34 -2 -31 -4 3 -8 -12 -8 -33 0 -21 4 -36 8 -33 10 6 -2 -67 -13
-82 -15 -20 -31 -108 -21 -114 15 -10 14 -141 -3 -205 -13 -53 -13 -61 0 -71
13 -9 13 -13 -5 -29 -22 -20 -27 -36 -12 -36 5 0 11 8 13 18 2 9 4 -4 4 -30
-1 -27 -3 -43 -4 -38 -2 6 -8 8 -12 5 -5 -3 -6 -13 -3 -21 3 -9 0 -20 -8 -25
-12 -8 -12 -10 0 -18 11 -7 8 -24 -18 -96 -29 -80 -30 -89 -17 -116 8 -16 12
-38 9 -49 -3 -12 1 -22 11 -26 22 -8 20 -26 -4 -52 -11 -12 -20 -30 -20 -40 0
-11 -8 -30 -18 -43 -11 -13 -22 -36 -26 -52 l-7 -28 21 21 c26 26 44 27 30 1
-13 -25 -13 -78 0 -86 12 -7 14 -55 2 -55 -4 0 -13 -9 -20 -20 -14 -23 0 -27
21 -5 24 23 27 6 6 -31 -10 -19 -19 -43 -19 -54 0 -10 -4 -22 -10 -25 -17 -11
-11 -25 11 -25 20 0 21 -1 5 -23 -23 -31 -29 -47 -22 -54 3 -4 13 2 20 13 19
25 31 12 16 -16 -10 -18 -9 -24 1 -31 10 -6 9 -12 -5 -28 -11 -12 -16 -29 -13
-40 2 -11 -2 -29 -10 -41 -11 -16 -12 -28 -4 -50 7 -21 7 -39 0 -60 -6 -16 -9
-35 -6 -42 3 -7 6 -3 6 8 1 24 46 58 66 51 7 -3 15 -25 18 -49 4 -36 1 -47
-19 -65 -13 -12 -24 -25 -24 -30 0 -4 -14 -21 -31 -39 -22 -23 -29 -37 -23
-47 8 -13 12 -13 27 -2 12 8 14 15 7 20 -5 3 -8 11 -5 16 8 12 45 12 45 -1 0
-5 6 -10 14 -10 25 0 34 -25 39 -105 10 -165 19 -216 34 -210 24 9 73 47 115
90 33 34 39 45 34 70 -3 16 -10 167 -16 335 -11 317 -7 953 10 1725 5 248 12
648 15 890 8 675 22 1539 31 1875 4 129 2 370 -5 535 -6 165 -12 478 -13 695
0 217 -5 503 -9 635 -4 132 -10 514 -14 849 -3 335 -8 613 -10 616 -2 4 -7
231 -11 506 -4 274 -10 501 -15 504 -4 3 -9 18 -11 34 -3 33 -25 46 -34 22z
m26 -203 c0 -7 -7 -13 -15 -13 -15 0 -21 31 -8 43 8 8 23 -12 23 -30z m-6 -67
c-3 -9 -13 -16 -21 -16 -8 0 -12 6 -9 13 3 6 9 20 12 31 6 16 8 16 15 3 5 -8
6 -22 3 -31z m-7 -78 c-3 -8 -6 -5 -6 6 -1 11 2 17 5 13 3 -3 4 -12 1 -19z
m-167 -7582 c0 -3 -4 -8 -10 -11 -5 -3 -10 -1 -10 4 0 6 5 11 10 11 6 0 10 -2
10 -4z m60 -1066 c0 -5 -7 -10 -16 -10 -8 0 -12 5 -9 10 3 6 10 10 16 10 5 0
9 -4 9 -10z"/>
<path d="M15826 9921 c-4 -7 -5 -15 -2 -18 9 -9 19 4 14 18 -4 11 -6 11 -12 0z"/>
<path d="M15101 9784 c0 -11 3 -14 6 -6 3 7 2 16 -1 19 -3 4 -6 -2 -5 -13z"/>
<path d="M6337 9756 c-6 -16 2 -28 14 -20 12 7 11 34 0 34 -5 0 -11 -6 -14
-14z"/>
<path d="M6325 9700 c-3 -5 -1 -10 4 -10 6 0 11 5 11 10 0 6 -2 10 -4 10 -3 0
-8 -4 -11 -10z"/>
<path d="M15660 9640 c0 -5 7 -10 16 -10 8 0 12 5 9 10 -3 6 -10 10 -16 10 -5
0 -9 -4 -9 -10z"/>
<path d="M16240 9429 c0 -5 5 -7 10 -4 6 3 10 8 10 11 0 2 -4 4 -10 4 -5 0
-10 -5 -10 -11z"/>
<path d="M15165 5180 c-3 -5 -1 -10 4 -10 6 0 11 5 11 10 0 6 -2 10 -4 10 -3
0 -8 -4 -11 -10z"/>
<path d="M14980 2450 c0 -5 5 -10 10 -10 6 0 10 5 10 10 0 6 -4 10 -10 10 -5
0 -10 -4 -10 -10z"/>
<path d="M11223 2011 c-35 -29 -41 -46 -20 -54 9 -4 9 -8 1 -14 -7 -5 -10 -29
-7 -63 2 -30 4 -65 4 -77 -1 -13 4 -23 9 -23 6 0 10 -9 10 -20 0 -12 9 -30 19
-41 18 -19 26 -20 113 -13 51 4 104 8 118 9 36 2 83 16 98 28 11 8 11 12 0 19
-11 6 -11 10 0 16 14 9 8 56 -10 79 -6 7 -8 19 -5 27 4 10 1 13 -8 10 -19 -8
-38 29 -23 44 9 9 7 15 -7 25 -11 9 -15 19 -10 27 5 9 4 11 -4 6 -6 -4 -17 -4
-24 1 -7 5 -27 10 -46 11 -18 2 -42 7 -53 13 -11 6 -43 12 -71 14 -45 4 -56 1
-84 -24z"/>
<path d="M14910 1910 c-8 -5 -11 -12 -7 -16 4 -4 15 0 24 9 18 18 8 23 -17 7z"/>
<path d="M14926 1853 c-3 -10 -9 -25 -12 -33 -5 -10 0 -9 15 4 21 19 29 46 12
46 -5 0 -11 -8 -15 -17z"/>
<path d="M12853 1818 c2 -8 17 -12 36 -10 18 1 40 -2 51 -8 13 -7 27 -7 46 0
39 15 26 21 -61 26 -59 3 -76 1 -72 -8z"/>
<path d="M13035 1810 c3 -5 8 -10 11 -10 2 0 4 5 4 10 0 6 -5 10 -11 10 -5 0
-7 -4 -4 -10z"/>
<path d="M11590 1769 c0 -5 5 -7 10 -4 6 3 10 8 10 11 0 2 -4 4 -10 4 -5 0
-10 -5 -10 -11z"/>
<path d="M12880 1616 c0 -9 7 -16 16 -16 9 0 14 5 12 12 -6 18 -28 21 -28 4z"/>
<path d="M12965 1610 c-3 -5 -1 -10 4 -10 6 0 11 5 11 10 0 6 -2 10 -4 10 -3
0 -8 -4 -11 -10z"/>
<path d="M5930 1583 c0 -12 5 -25 10 -28 13 -8 13 15 0 35 -8 12 -10 11 -10
-7z"/>
<path d="M11291 1578 c-19 -30 -12 -50 26 -85 37 -35 58 -38 58 -10 0 8 4 19
8 23 12 12 8 49 -7 70 -18 24 -70 25 -85 2z"/>
<path d="M12850 1585 c0 -8 5 -15 10 -15 6 0 10 7 10 15 0 8 -4 15 -10 15 -5
0 -10 -7 -10 -15z"/>
<path d="M12925 1583 c-30 -7 -41 -21 -22 -29 10 -3 24 0 33 7 13 10 17 10 24
-1 5 -8 12 -11 16 -8 6 6 -20 40 -28 37 -2 -1 -12 -3 -23 -6z"/>
<path d="M12990 1580 c0 -5 7 -10 15 -10 8 0 15 5 15 10 0 6 -7 10 -15 10 -8
0 -15 -4 -15 -10z"/>
<path d="M12840 1550 c0 -5 7 -10 15 -10 8 0 15 -4 15 -10 0 -5 5 -10 12 -10
6 0 3 9 -7 20 -20 22 -35 26 -35 10z"/>
<path d="M12802 1518 c-7 -7 -12 -16 -12 -21 0 -5 7 -1 16 8 9 9 14 18 12 20
-2 3 -10 -1 -16 -7z"/>
<path d="M12943 1502 c-17 -16 -38 -43 -47 -60 -20 -38 -41 -54 -31 -23 3 11
3 26 0 31 -10 16 -45 -35 -52 -75 -3 -19 -9 -33 -13 -30 -4 2 -6 -15 -6 -39 1
-24 5 -42 9 -39 5 3 20 -1 35 -8 20 -11 26 -11 29 -1 5 14 33 17 33 3 0 -5 18
-8 41 -7 22 1 43 -2 46 -7 3 -4 13 -1 24 9 15 13 22 14 33 5 16 -13 56 -6 56
9 0 14 64 -1 73 -17 7 -11 10 -11 22 1 8 8 20 16 27 19 10 3 8 9 -5 24 -16 19
-16 21 3 38 28 25 26 43 -5 37 -14 -2 -25 -11 -25 -18 0 -22 -13 -17 -43 17
-19 22 -32 29 -47 24 -11 -4 -20 -2 -20 4 0 6 5 11 11 11 6 0 9 10 7 23 -3 24
-25 30 -110 28 -53 -1 -58 6 -28 32 11 9 20 21 20 27 0 14 -2 13 -37 -18z
m107 -72 c0 -5 -7 -10 -16 -10 -8 0 -12 5 -9 10 3 6 10 10 16 10 5 0 9 -4 9
-10z m140 -140 c0 -5 -7 -10 -15 -10 -8 0 -15 5 -15 10 0 6 7 10 15 10 8 0 15
-4 15 -10z"/>
<path d="M5950 1513 c0 -4 5 -15 10 -23 8 -13 10 -13 10 2 0 9 -4 20 -10 23
-5 3 -10 3 -10 -2z"/>
<path d="M13100 1470 c0 -5 5 -10 10 -10 6 0 10 5 10 10 0 6 -4 10 -10 10 -5
0 -10 -4 -10 -10z"/>
<path d="M13162 1428 c5 -15 28 -23 28 -10 0 5 -7 13 -16 16 -10 4 -14 1 -12
-6z"/>
<path d="M11371 1414 c0 -11 3 -14 6 -6 3 7 2 16 -1 19 -3 4 -6 -2 -5 -13z"/>
<path d="M7719 1384 c-14 -17 0 -23 31 -14 57 16 66 28 21 26 -23 0 -47 -6
-52 -12z"/>
<path d="M11394 1378 c4 -18 2 -28 -4 -28 -15 0 -3 -39 19 -63 14 -17 14 -20
-2 -32 -24 -17 -22 -38 3 -30 14 5 20 2 20 -9 0 -11 9 -16 30 -16 21 0 28 4
24 14 -3 8 0 17 6 21 15 9 4 40 -26 72 -13 14 -24 31 -24 38 0 6 -12 22 -26
36 l-27 24 7 -27z"/>
<path d="M13185 1390 c-3 -5 -1 -10 4 -10 6 0 11 5 11 10 0 6 -2 10 -4 10 -3
0 -8 -4 -11 -10z"/>
<path d="M7638 1358 c-16 -5 -28 -16 -28 -24 0 -8 3 -14 6 -14 9 0 48 23 62
37 17 16 2 17 -40 1z"/>
<path d="M10472 1341 c4 -13 18 -16 19 -4 0 4 -5 9 -11 12 -7 2 -11 -2 -8 -8z"/>
<path d="M10267 1320 c-4 -16 -12 -20 -38 -18 -18 2 -34 -2 -36 -9 -3 -9 15
-11 66 -9 39 1 74 5 77 9 4 4 19 7 33 7 14 1 37 7 50 14 21 12 16 13 -50 11
-41 -1 -79 2 -85 7 -8 5 -13 1 -17 -12z"/>
<path d="M10155 1301 c-3 -6 -10 -9 -14 -7 -4 3 -13 1 -21 -4 -12 -7 -12 -12
-2 -22 10 -10 17 -8 34 10 12 12 19 24 16 27 -3 4 -9 1 -13 -4z"/>
<path d="M13245 1300 c-3 -5 1 -10 9 -10 9 0 16 5 16 10 0 6 -4 10 -9 10 -6 0
-13 -4 -16 -10z"/>
<path d="M11260 1265 c0 -9 6 -12 15 -9 8 4 15 10 15 15 0 5 -7 9 -15 9 -8 0
-15 -7 -15 -15z"/>
<path d="M11342 1266 c1 -10 8 -17 13 -17 15 1 12 24 -3 29 -9 3 -13 -2 -10
-12z"/>
<path d="M11300 1251 c0 -5 7 -11 15 -15 8 -3 15 -1 15 3 0 5 -7 11 -15 15 -8
3 -15 1 -15 -3z"/>
<path d="M14895 1249 c-10 -15 3 -25 16 -12 7 7 7 13 1 17 -6 3 -14 1 -17 -5z"/>
<path d="M12805 1200 c-3 -5 -1 -10 4 -10 6 0 11 5 11 10 0 6 -2 10 -4 10 -3
0 -8 -4 -11 -10z"/>
<path d="M13156 1203 c-13 -14 -4 -20 22 -15 24 5 26 3 13 -11 -7 -9 -17 -14
-23 -11 -5 3 -15 0 -23 -6 -11 -9 -15 -9 -15 -1 0 15 -30 14 -36 -2 -3 -9 -16
-12 -34 -9 -24 3 -30 9 -30 28 0 22 -4 24 -47 23 -31 -1 -38 -4 -20 -6 16 -3
26 -9 24 -16 -3 -7 -10 -11 -17 -9 -7 1 -19 -3 -26 -9 -11 -9 -20 -9 -40 2
-23 12 -28 11 -39 -4 -13 -19 -35 -23 -35 -7 0 15 -19 12 -44 -7 -12 -10 -20
-26 -18 -35 2 -10 -2 -18 -9 -18 -11 0 32 -38 83 -72 l23 -16 -41 -36 c-40
-34 -47 -50 -57 -131 -1 -11 -6 -27 -12 -35 -5 -8 -10 -23 -10 -33 -1 -9 -10
-23 -20 -31 -43 -32 -9 -36 258 -30 144 4 282 10 307 14 l45 7 -53 8 c-38 6
-50 11 -43 19 6 7 8 22 4 34 -4 17 -2 21 9 17 11 -5 14 7 13 57 0 35 3 79 7
98 4 19 3 40 -3 46 -7 8 -6 14 1 19 5 3 10 1 10 -4 0 -6 5 -11 11 -11 6 0 9 9
6 20 -3 12 -1 34 3 51 11 38 5 53 -26 67 -14 7 -24 20 -24 33 0 17 -4 20 -21
16 -12 -3 -31 -2 -44 3 -13 5 -26 6 -29 3z m-266 -143 c0 -5 -7 -10 -16 -10
-8 0 -12 5 -9 10 3 6 10 10 16 10 5 0 9 -4 9 -10z m240 -108 c0 -10 -41 -35
-47 -28 -11 11 7 36 27 36 11 0 20 -3 20 -8z m48 -144 l-2 -68 -46 1 c-25 1
-35 4 -23 6 21 4 52 58 40 70 -3 3 0 12 8 20 19 18 19 28 -1 47 -8 9 -12 21
-8 27 15 25 34 -36 32 -103z m-44 54 c4 -23 2 -34 -9 -38 -7 -3 -11 -12 -8
-20 3 -8 -1 -14 -10 -14 -22 0 -31 18 -17 35 6 8 9 18 6 24 -9 14 13 66 23 55
5 -5 11 -24 15 -42z m-308 -10 c-17 -16 -18 -16 -5 5 7 12 15 20 18 17 3 -2
-3 -12 -13 -22z"/>
<path d="M11255 1190 c-40 -3 -53 -7 -40 -12 11 -4 45 -4 75 0 71 10 44 19
-35 12z"/>
<path d="M11370 1190 c-9 -6 -10 -10 -3 -10 6 0 15 5 18 10 8 12 4 12 -15 0z"/>
<path d="M13054 1191 c3 -5 15 -7 26 -4 28 7 25 13 -6 13 -14 0 -23 -4 -20 -9z"/>
<path d="M11110 1160 c0 -5 5 -10 11 -10 5 0 7 5 4 10 -3 6 -8 10 -11 10 -2 0
-4 -4 -4 -10z"/>
<path d="M10990 1140 c0 -5 11 -10 25 -10 14 0 25 5 25 10 0 6 -11 10 -25 10
-14 0 -25 -4 -25 -10z"/>
<path d="M12721 1124 c0 -11 3 -14 6 -6 3 7 2 16 -1 19 -3 4 -6 -2 -5 -13z"/>
<path d="M7830 1100 c0 -5 5 -10 10 -10 6 0 10 5 10 10 0 6 -4 10 -10 10 -5 0
-10 -4 -10 -10z"/>
<path d="M7729 1073 c-6 -7 -18 -13 -26 -13 -7 0 -24 -6 -36 -14 -12 -8 -41
-17 -65 -21 -24 -4 -46 -13 -49 -21 -3 -8 -14 -14 -25 -14 -10 0 -16 -4 -13
-10 11 -17 49 -11 110 19 33 16 63 27 67 25 4 -3 23 2 40 12 18 9 39 20 47 24
8 3 16 11 18 17 5 15 -56 12 -68 -4z"/>
<path d="M10350 1020 c0 -5 5 -10 10 -10 6 0 10 5 10 10 0 6 -4 10 -10 10 -5
0 -10 -4 -10 -10z"/>
<path d="M14841 974 c0 -11 3 -14 6 -6 3 7 2 16 -1 19 -3 4 -6 -2 -5 -13z"/>
<path d="M10398 958 c9 -9 15 -9 24 0 9 9 7 12 -12 12 -19 0 -21 -3 -12 -12z"/>
<path d="M14935 960 c-3 -5 -1 -10 4 -10 6 0 11 5 11 10 0 6 -2 10 -4 10 -3 0
-8 -4 -11 -10z"/>
<path d="M10288 933 c7 -3 16 -2 19 1 4 3 -2 6 -13 5 -11 0 -14 -3 -6 -6z"/>
<path d="M14886 921 c-3 -5 1 -12 10 -15 20 -8 29 -1 19 13 -8 13 -22 14 -29
2z"/>
<path d="M14832 908 c-14 -14 -16 -38 -4 -38 10 0 42 33 42 43 0 11 -25 8 -38
-5z"/>
<path d="M14757 896 c-3 -8 -3 -17 0 -20 7 -7 33 13 33 25 0 15 -27 10 -33 -5z"/>
<path d="M7875 830 c-3 -5 -1 -10 4 -10 6 0 11 5 11 10 0 6 -2 10 -4 10 -3 0
-8 -4 -11 -10z"/>
<path d="M14965 820 c-9 -14 23 -62 35 -55 16 10 11 52 -6 59 -21 8 -22 8 -29
-4z"/>
<path d="M14916 771 c-4 -7 -5 -15 -2 -18 9 -9 19 4 14 18 -4 11 -6 11 -12 0z"/>
<path d="M14930 724 c0 -8 5 -12 10 -9 6 3 10 10 10 16 0 5 -4 9 -10 9 -5 0
-10 -7 -10 -16z"/>
<path d="M14997 684 c-10 -10 -9 -92 2 -98 10 -7 22 86 12 97 -4 4 -10 4 -14
1z"/>
</g>
</svg>
